name rise30.9205peak61.366fall85.3838.mot
datacolumns 19
datarows 23
range 20.21825800000000 20.25493200000000
endheader
time	ground_force1_vx	ground_force1_vy	ground_force1_vz	ground_force1_px	ground_force1_py	ground_force1_pz	ground_force2_vx	ground_force2_vy	ground_force2_vz	ground_force2_px	ground_force2_py	ground_force2_pz	ground_torque1_x	ground_torque1_y	ground_torque1_z	ground_torque2_x	ground_torque2_y	ground_torque2_z	
20.21825800000000	-63.68861800000000	829.70803200000000	58.74049700000000	0.11006500000000	0.00000000000000	0.11678900000000	-10.77189100000000	49.02264100000000	14.46597900000000	0.38745900000000	0.00000000000000	-0.05202100000000	0.00000000000000	23.99348600000000	0.00000000000000	0.00000000000000	10.78855600000000	0.00000000000000	
20.21992100000000	-64.09297400000000	826.83700999999996	58.45722300000000	0.10953500000000	0.00000000000000	0.11677200000000	-11.57606500000000	54.50387500000000	15.80783100000000	0.39217200000000	0.00000000000000	-0.05236300000000	0.00000000000000	23.93375900000000	0.00000000000000	0.00000000000000	11.88751200000000	0.00000000000000	
20.22159400000000	-64.50380199999999	823.84261300000003	58.15651400000000	0.10901700000000	0.00000000000000	0.11675100000000	-12.23275300000000	59.73194700000000	17.00665300000000	0.39654100000000	0.00000000000000	-0.05269800000000	0.00000000000000	23.87459900000000	0.00000000000000	0.00000000000000	12.89110900000000	0.00000000000000	
20.22325500000000	-64.92137700000001	820.72556599999996	57.83843000000000	0.10850900000000	0.00000000000000	0.11672700000000	-12.73587600000000	64.67328500000001	18.05153200000000	0.40059200000000	0.00000000000000	-0.05302900000000	0.00000000000000	23.81600800000000	0.00000000000000	0.00000000000000	13.78834800000000	0.00000000000000	
20.22493400000000	-65.34593900000000	817.48665000000005	57.50304000000000	0.10801000000000	0.00000000000000	0.11669900000000	-13.08696700000000	69.32033100000000	18.94044100000000	0.40434400000000	0.00000000000000	-0.05335800000000	0.00000000000000	23.75797900000000	0.00000000000000	0.00000000000000	14.57501500000000	0.00000000000000	
20.22659400000000	-65.77768700000000	814.12669500000004	57.15041800000000	0.10752000000000	0.00000000000000	0.11666800000000	-13.29399400000000	73.68844300000001	19.67904300000000	0.40781700000000	0.00000000000000	-0.05368700000000	0.00000000000000	23.70049100000000	0.00000000000000	0.00000000000000	15.25294300000000	0.00000000000000	
20.22826000000000	-66.21677600000000	810.64657699999998	56.78064500000000	0.10703600000000	0.00000000000000	0.11663300000000	-13.36985800000000	77.81144800000000	20.27906500000000	0.41102700000000	0.00000000000000	-0.05401800000000	0.00000000000000	23.64351400000000	0.00000000000000	0.00000000000000	15.82889600000000	0.00000000000000	
20.22993600000000	-66.66331200000000	807.04720599999996	56.39380600000000	0.10655700000000	0.00000000000000	0.11659400000000	-13.33073900000000	81.73644100000000	20.75647000000000	0.41398800000000	0.00000000000000	-0.05435100000000	0.00000000000000	23.58700300000000	0.00000000000000	0.00000000000000	16.31323100000000	0.00000000000000	
20.23159600000000	-67.11735400000001	803.32952200000000	55.98998900000000	0.10608300000000	0.00000000000000	0.11655100000000	-13.19446000000000	85.51841000000000	21.12958500000000	0.41671400000000	0.00000000000000	-0.05468900000000	0.00000000000000	23.53090500000000	0.00000000000000	0.00000000000000	16.71850200000000	0.00000000000000	
20.23325900000000	-67.57890500000001	799.49449100000004	55.56928700000000	0.10561100000000	0.00000000000000	0.11650500000000	-12.97899200000000	89.21513000000000	21.41737000000000	0.41921800000000	0.00000000000000	-0.05503100000000	0.00000000000000	23.47515400000000	0.00000000000000	0.00000000000000	17.05811200000000	0.00000000000000	
20.23494200000000	-68.04791200000000	795.54309400000000	55.13179800000000	0.10514100000000	0.00000000000000	0.11645400000000	-12.70120000000000	92.88270799999999	21.63792300000000	0.42151000000000	0.00000000000000	-0.05537800000000	0.00000000000000	23.41967400000000	0.00000000000000	0.00000000000000	17.34513000000000	0.00000000000000	
20.23660700000000	-68.52426400000000	791.47632599999997	54.67762300000000	0.10467100000000	0.00000000000000	0.11640000000000	-12.37588500000000	96.57200600000000	21.80731600000000	0.42360100000000	0.00000000000000	-0.05573200000000	0.00000000000000	23.36437800000000	0.00000000000000	0.00000000000000	17.59134400000000	0.00000000000000	
20.23825800000000	-69.00778500000000	787.29518399999995	54.20686400000000	0.10419900000000	0.00000000000000	0.11634200000000	-12.01514400000000	100.32606300000000	21.93877800000000	0.42550100000000	0.00000000000000	-0.05609200000000	0.00000000000000	23.30916800000000	0.00000000000000	0.00000000000000	17.80657000000000	0.00000000000000	
20.23993100000000	-69.49823800000000	783.00067000000001	53.71963100000000	0.10372500000000	0.00000000000000	0.11627900000000	-11.62804200000000	104.17854199999999	22.04223700000000	0.42721900000000	0.00000000000000	-0.05645800000000	0.00000000000000	23.25393700000000	0.00000000000000	0.00000000000000	17.99824500000000	0.00000000000000	
20.24159300000000	-69.99531500000001	778.59377700000005	53.21603500000000	0.10324700000000	0.00000000000000	0.11621300000000	-11.22056200000000	108.15313600000000	22.12418500000000	0.42876300000000	0.00000000000000	-0.05683200000000	0.00000000000000	23.19856600000000	0.00000000000000	0.00000000000000	18.17126600000000	0.00000000000000	
20.24326000000000	-70.49863900000000	774.07549100000006	52.69619100000000	0.10276300000000	0.00000000000000	0.11614300000000	-10.79579200000000	112.26379700000000	22.18783000000000	0.43014200000000	0.00000000000000	-0.05721200000000	0.00000000000000	23.14292800000000	0.00000000000000	0.00000000000000	18.32806600000000	0.00000000000000	
20.24492800000000	-71.00776300000000	769.44678399999998	52.16022000000000	0.10227300000000	0.00000000000000	0.11606800000000	-10.35429100000000	116.51562800000001	22.23345300000000	0.43136300000000	0.00000000000000	-0.05759900000000	0.00000000000000	23.08688700000000	0.00000000000000	0.00000000000000	18.46885700000000	0.00000000000000	
20.24659100000000	-71.52216400000000	764.70861000000002	51.60824600000000	0.10177400000000	0.00000000000000	0.11599000000000	-9.89456300000000	120.90624500000000	22.25892400000000	0.43243400000000	0.00000000000000	-0.05799300000000	0.00000000000000	23.03029600000000	0.00000000000000	0.00000000000000	18.59201000000000	0.00000000000000	
20.24825900000000	-72.04124600000000	759.86190199999999	51.04040100000000	0.10126600000000	0.00000000000000	0.11590700000000	-9.41360100000000	125.42742100000000	22.26030000000000	0.43336300000000	0.00000000000000	-0.05839400000000	0.00000000000000	22.97300300000000	0.00000000000000	0.00000000000000	18.69449900000000	0.00000000000000	
20.24992700000000	-72.56433400000000	754.90757299999996	50.45682100000000	0.10074700000000	0.00000000000000	0.11582000000000	-8.90743800000000	130.06683799999999	22.23244200000000	0.43415500000000	0.00000000000000	-0.05880100000000	0.00000000000000	22.91484500000000	0.00000000000000	0.00000000000000	18.77238200000000	0.00000000000000	
20.25158700000000	-73.09067700000000	749.84650699999997	49.85765100000000	0.10021700000000	0.00000000000000	0.11572900000000	-8.37165700000000	134.80979400000001	22.16961900000000	0.43481700000000	0.00000000000000	-0.05921400000000	0.00000000000000	22.85565100000000	0.00000000000000	0.00000000000000	18.82126500000000	0.00000000000000	
20.25325900000000	-73.61944600000000	744.67956400000003	49.24304200000000	0.09967300000000	0.00000000000000	0.11563500000000	-7.80184900000000	139.64075399999999	22.06603100000000	0.43535700000000	0.00000000000000	-0.05963300000000	0.00000000000000	22.79524600000000	0.00000000000000	0.00000000000000	18.83671100000000	0.00000000000000	
20.25493200000000	-74.14973200000000	739.40757499999995	48.61315500000000	0.09911600000000	0.00000000000000	0.11553600000000	-7.19396900000000	144.54464999999999	21.91625900000000	0.43578000000000	0.00000000000000	-0.06005700000000	0.00000000000000	22.73344500000000	0.00000000000000	0.00000000000000	18.81459500000000	0.00000000000000	
